<svg width="21" height="22" viewBox="0 0 21 22" fill="none" xmlns="http://www.w3.org/2000/svg">
<g filter="url(#filter0_n_1_4656)">
<g filter="url(#filter1_n_1_4656)">
<path d="M3.76892 15.1604C-1.38706 10.9207 0.562865 6.81989 0.110403 1.1743C0.0895794 0.914476 0.311883 0.698302 0.56765 0.748551C3.6413 1.35242 8.83086 3.77579 9.94433 9.71256C10.4472 12.3937 10.1918 16.0689 10.187 20.6243C10.1869 20.755 10.019 20.8093 9.94106 20.7043C9.00394 19.442 8.67614 19.1955 3.76892 15.1604Z" fill="url(#paint0_linear_1_4656)"/>
<path d="M3.45544 14.7139C-0.964697 11.0603 0.511898 5.93865 0.333183 1.3678C0.323238 1.11343 0.543087 0.908146 0.79242 0.959484C3.67373 1.55274 8.74306 4.05779 9.77333 9.55093C10.2372 12.0243 10.2039 16.2955 10.2108 20.5501C10.211 20.6839 10.0348 20.7385 9.95618 20.6302C8.95041 19.2453 7.6722 18.1994 3.45544 14.7139Z" fill="url(#paint1_linear_1_4656)"/>
<g opacity="0.6">
<path d="M10.2128 20.6378L10.2005 15.7588C10.1989 15.1173 10.0614 14.4758 9.75016 13.9148C6.06394 7.27134 0.334983 8.70365 0.334983 8.70365C0.334983 8.70365 0.417658 12.3493 3.39035 14.7005C5.09009 16.0449 5.59453 16.615 7.29389 17.9599C8.64777 19.0313 9.52751 20.141 9.94012 20.7215C10.0198 20.8336 10.2132 20.7753 10.2128 20.6378Z" fill="url(#paint2_linear_1_4656)"/>
<path d="M10.2128 20.6378L10.2005 15.7588C10.1989 15.1173 10.0614 14.4758 9.75016 13.9148C6.06394 7.27134 0.334983 8.70365 0.334983 8.70365C0.334983 8.70365 0.417658 12.3493 3.39035 14.7005C5.09009 16.0449 5.59453 16.615 7.29389 17.9599C8.64777 19.0313 9.52751 20.141 9.94012 20.7215C10.0198 20.8336 10.2132 20.7753 10.2128 20.6378Z" fill="url(#paint3_radial_1_4656)"/>
</g>
<path d="M10.0366 14.5917C8.43198 11.1025 4.93369 8.07745 0.944118 8.63721C0.877364 8.64569 0.806954 8.62761 0.741589 8.63784C0.806971 8.62769 0.8775 8.64609 0.94427 8.63773C4.8618 8.18497 8.38028 11.1974 9.81636 14.6963C9.90272 14.8883 10.1288 15.3704 10.1288 15.3704L10.0663 14.9646C10.0663 14.9646 10.132 14.7828 10.0366 14.5917Z" fill="url(#paint4_linear_1_4656)"/>
<path d="M10.1013 14.5431C8.4966 11.0539 4.99915 8.0748 1.00958 8.63456C0.942824 8.64305 0.872414 8.62496 0.807049 8.6352C0.872432 8.62505 0.94296 8.64344 1.00973 8.63509C5.01211 8.08455 8.4449 11.1488 9.88098 14.6477C9.96735 14.8397 10.1935 15.3218 10.1935 15.3218L10.131 14.916C10.131 14.916 10.1967 14.7342 10.1013 14.5431Z" fill="#3F3F3F"/>
</g>
<path d="M0.597656 0.750381C3.67134 1.35435 8.8602 3.77768 9.97363 9.71425C10.4755 12.3902 10.2961 16.2093 10.2949 20.7621C10.2949 20.8952 10.1221 20.948 10.0469 20.8383C9.99973 20.7693 9.95197 20.7042 9.90723 20.64C9.69263 20.3442 9.3738 19.9375 8.95117 19.4779C8.18848 18.7096 6.88858 17.647 3.82422 15.1869C-1.40838 10.9858 0.589214 6.8251 0.139648 1.17616C0.118967 0.916328 0.34189 0.700132 0.597656 0.750381Z" fill="url(#paint5_radial_1_4656)"/>
<g filter="url(#filter2_n_1_4656)">
<path d="M16.9607 15.0746C21.9989 11.1638 20.469 7.076 20.6647 1.05249C20.6711 0.853148 20.5335 0.675797 20.334 0.678305C18.0931 0.706479 11.6625 3.75205 10.9489 9.75692C10.6115 12.5959 10.4925 16.1117 10.6014 20.6725C10.6044 20.7957 10.7567 20.8502 10.8357 20.7556C11.9638 19.4062 12.1295 18.8247 16.9607 15.0746Z" fill="url(#paint6_radial_1_4656)"/>
<path d="M16.9607 15.0746C21.9989 11.1638 20.469 7.076 20.6647 1.05249C20.6711 0.853148 20.5335 0.675797 20.334 0.678305C18.0931 0.706479 11.6625 3.75205 10.9489 9.75692C10.6115 12.5959 10.4925 16.1117 10.6014 20.6725C10.6044 20.7957 10.7567 20.8502 10.8357 20.7556C11.9638 19.4062 12.1295 18.8247 16.9607 15.0746Z" fill="url(#paint7_radial_1_4656)"/>
<path d="M17.3981 14.56C21.8182 10.9064 20.3416 5.78479 20.5203 1.21394C20.5303 0.959567 20.3104 0.754284 20.0611 0.805622C17.1798 1.39888 12.1105 3.90393 11.0802 9.39706C10.6163 11.8704 10.6496 16.1417 10.6427 20.3963C10.6425 20.5301 10.8187 20.5846 10.8973 20.4764C11.9031 19.0914 13.1813 18.0455 17.3981 14.56Z" fill="url(#paint8_linear_1_4656)"/>
<path d="M10.6406 20.5303L10.653 15.605C10.6547 14.9634 10.7921 14.322 11.1034 13.761C14.7896 7.11747 20.5185 8.54979 20.5185 8.54979C20.5185 8.54979 20.4058 12.2789 17.4331 14.63C15.7334 15.9744 15.3612 16.2636 13.6497 17.7104C12.2879 18.8616 11.3335 20.0387 10.9009 20.6151C10.8205 20.7221 10.6402 20.6641 10.6406 20.5303Z" fill="url(#paint9_linear_1_4656)"/>
<path d="M10.6406 20.5303L10.653 15.605C10.6547 14.9634 10.7921 14.322 11.1034 13.761C14.7896 7.11747 20.5185 8.54979 20.5185 8.54979C20.5185 8.54979 20.4058 12.2789 17.4331 14.63C15.7334 15.9744 15.3612 16.2636 13.6497 17.7104C12.2879 18.8616 11.3335 20.0387 10.9009 20.6151C10.8205 20.7221 10.6402 20.6641 10.6406 20.5303Z" fill="url(#paint10_radial_1_4656)"/>
<path d="M10.8208 14.4379C12.4254 10.9486 15.9237 7.92358 19.9133 8.48335C19.9801 8.49183 20.0505 8.47375 20.1158 8.48398C20.0505 8.47383 19.9799 8.49222 19.9132 8.48387C15.9956 8.03111 12.4771 11.0436 11.0411 14.5424C10.9547 14.7344 10.7286 15.2165 10.7286 15.2165L10.7911 14.8107C10.7911 14.8107 10.7254 14.6289 10.8208 14.4379Z" fill="url(#paint11_linear_1_4656)"/>
<path d="M10.8138 14.3497C12.4184 10.8604 15.855 7.92194 19.8446 8.4817C19.9113 8.49018 19.9817 8.4721 20.0471 8.48234C19.9817 8.47218 19.9112 8.49058 19.8444 8.48222C15.8421 7.93169 12.4093 10.996 10.9732 14.4948C10.8868 14.6868 10.6607 15.1689 10.6607 15.1689L10.6606 14.8051C10.6606 14.8051 10.7184 14.5408 10.8138 14.3497Z" fill="url(#paint12_linear_1_4656)"/>
</g>
</g>
<defs>
<filter id="filter0_n_1_4656" x="0.107422" y="0.678276" width="20.6309" height="20.2192" filterUnits="userSpaceOnUse" color-interpolation-filters="sRGB">
<feFlood flood-opacity="0" result="BackgroundImageFix"/>
<feBlend mode="normal" in="SourceGraphic" in2="BackgroundImageFix" result="shape"/>
<feTurbulence type="fractalNoise" baseFrequency="37.003162384033203 37.003162384033203" stitchTiles="stitch" numOctaves="3" result="noise" seed="6270" />
<feColorMatrix in="noise" type="luminanceToAlpha" result="alphaNoise" />
<feComponentTransfer in="alphaNoise" result="coloredNoise1">
<feFuncA type="discrete" tableValues="0 0 0 0 1 1 1 1 1 1 1 1 1 1 1 1 1 1 1 1 1 1 1 1 1 1 1 1 1 1 1 1 1 1 1 1 1 1 1 1 1 1 1 1 1 1 1 0 0 0 0 0 0 0 0 0 0 0 0 0 0 0 0 0 0 0 0 0 0 0 0 0 0 0 0 0 0 0 0 0 0 0 0 0 0 0 0 0 0 0 0 0 0 0 0 0 0 0 0 0 "/>
</feComponentTransfer>
<feComposite operator="in" in2="shape" in="coloredNoise1" result="noise1Clipped" />
<feFlood flood-color="rgba(0, 0, 0, 0.25)" result="color1Flood" />
<feComposite operator="in" in2="noise1Clipped" in="color1Flood" result="color1" />
<feMerge result="effect1_noise_1_4656">
<feMergeNode in="shape" />
<feMergeNode in="color1" />
</feMerge>
</filter>
<filter id="filter1_n_1_4656" x="0.107422" y="0.741241" width="10.1484" height="20.0394" filterUnits="userSpaceOnUse" color-interpolation-filters="sRGB">
<feFlood flood-opacity="0" result="BackgroundImageFix"/>
<feBlend mode="normal" in="SourceGraphic" in2="BackgroundImageFix" result="shape"/>
<feTurbulence type="fractalNoise" baseFrequency="24.668773651123047 24.668773651123047" stitchTiles="stitch" numOctaves="3" result="noise" seed="5092" />
<feColorMatrix in="noise" type="luminanceToAlpha" result="alphaNoise" />
<feComponentTransfer in="alphaNoise" result="coloredNoise1">
<feFuncA type="discrete" tableValues="1 1 1 1 1 1 1 1 1 1 1 1 1 1 1 1 1 1 1 1 1 1 1 1 1 1 1 1 1 1 1 1 1 1 1 1 1 1 1 1 1 1 1 1 1 1 1 1 1 1 1 0 0 0 0 0 0 0 0 0 0 0 0 0 0 0 0 0 0 0 0 0 0 0 0 0 0 0 0 0 0 0 0 0 0 0 0 0 0 0 0 0 0 0 0 0 0 0 0 0 "/>
</feComponentTransfer>
<feComposite operator="in" in2="shape" in="coloredNoise1" result="noise1Clipped" />
<feFlood flood-color="rgba(131, 123, 123, 0.25)" result="color1Flood" />
<feComposite operator="in" in2="noise1Clipped" in="color1Flood" result="color1" />
<feMerge result="effect1_noise_1_4656">
<feMergeNode in="shape" />
<feMergeNode in="color1" />
</feMerge>
</filter>
<filter id="filter2_n_1_4656" x="10.5625" y="0.678276" width="10.1758" height="20.1253" filterUnits="userSpaceOnUse" color-interpolation-filters="sRGB">
<feFlood flood-opacity="0" result="BackgroundImageFix"/>
<feBlend mode="normal" in="SourceGraphic" in2="BackgroundImageFix" result="shape"/>
<feTurbulence type="fractalNoise" baseFrequency="24.668773651123047 24.668773651123047" stitchTiles="stitch" numOctaves="3" result="noise" seed="5092" />
<feColorMatrix in="noise" type="luminanceToAlpha" result="alphaNoise" />
<feComponentTransfer in="alphaNoise" result="coloredNoise1">
<feFuncA type="discrete" tableValues="1 1 1 1 1 1 1 1 1 1 1 1 1 1 1 1 1 1 1 1 1 1 1 1 1 1 1 1 1 1 1 1 1 1 1 1 1 1 1 1 1 1 1 1 1 1 1 1 1 1 1 0 0 0 0 0 0 0 0 0 0 0 0 0 0 0 0 0 0 0 0 0 0 0 0 0 0 0 0 0 0 0 0 0 0 0 0 0 0 0 0 0 0 0 0 0 0 0 0 0 "/>
</feComponentTransfer>
<feComposite operator="in" in2="shape" in="coloredNoise1" result="noise1Clipped" />
<feFlood flood-color="rgba(131, 123, 123, 0.25)" result="color1Flood" />
<feComposite operator="in" in2="noise1Clipped" in="color1Flood" result="color1" />
<feMerge result="effect1_noise_1_4656">
<feMergeNode in="shape" />
<feMergeNode in="color1" />
</feMerge>
</filter>
<linearGradient id="paint0_linear_1_4656" x1="0.481637" y1="0.187523" x2="10.6835" y2="21.6046" gradientUnits="userSpaceOnUse">
<stop stop-color="#F0F0F0"/>
<stop offset="1" stop-color="#686868"/>
</linearGradient>
<linearGradient id="paint1_linear_1_4656" x1="-1.23114" y1="2.05358" x2="10.0622" y2="18.905" gradientUnits="userSpaceOnUse">
<stop stop-color="#F2F2F2"/>
<stop offset="0.226398" stop-color="#D4D4D4"/>
<stop offset="0.730106" stop-color="#404040"/>
<stop offset="1" stop-color="#343434"/>
</linearGradient>
<linearGradient id="paint2_linear_1_4656" x1="2.24068" y1="8.36289" x2="10.9306" y2="19.4853" gradientUnits="userSpaceOnUse">
<stop stop-color="#D0CFCF"/>
<stop offset="0.270601" stop-color="#D6D6D6"/>
<stop offset="1" stop-color="#888888"/>
</linearGradient>
<radialGradient id="paint3_radial_1_4656" cx="0" cy="0" r="1" gradientUnits="userSpaceOnUse" gradientTransform="translate(1.94483 9.08074) rotate(84.8056) scale(10.4474 7.79521)">
<stop stop-color="#DBDBDB"/>
<stop offset="1" stop-color="#CBCBCA" stop-opacity="0"/>
</radialGradient>
<linearGradient id="paint4_linear_1_4656" x1="4.99783" y1="9.11021" x2="5.5743" y2="15.5491" gradientUnits="userSpaceOnUse">
<stop stop-color="#C8C8C8"/>
<stop offset="1" stop-color="#828282"/>
</linearGradient>
<radialGradient id="paint5_radial_1_4656" cx="0" cy="0" r="1" gradientTransform="matrix(4.39158 10.2018 -8.64808 3.72262 0.866238 7.39212)" gradientUnits="userSpaceOnUse">
<stop stop-color="white"/>
<stop offset="1" stop-color="#A5A5A5" stop-opacity="0"/>
</radialGradient>
<radialGradient id="paint6_radial_1_4656" cx="0" cy="0" r="1" gradientUnits="userSpaceOnUse" gradientTransform="translate(20.6775 5.77061) rotate(-152.21) scale(5.65141 25.1634)">
<stop stop-color="#3A3A3A"/>
<stop offset="1" stop-color="white"/>
</radialGradient>
<radialGradient id="paint7_radial_1_4656" cx="0" cy="0" r="1" gradientUnits="userSpaceOnUse" gradientTransform="translate(13.6511 4.01401) rotate(101.541) scale(13.1706 14.9088)">
<stop stop-color="white"/>
<stop offset="1" stop-color="#292929" stop-opacity="0.75"/>
</radialGradient>
<linearGradient id="paint8_linear_1_4656" x1="22.0847" y1="1.89972" x2="8.31287" y2="17.3043" gradientUnits="userSpaceOnUse">
<stop stop-color="#696969"/>
<stop offset="0.269894" stop-color="#868685"/>
<stop offset="0.773602" stop-color="#BBB9B9"/>
</linearGradient>
<linearGradient id="paint9_linear_1_4656" x1="18.6128" y1="8.20903" x2="10.6772" y2="19.3995" gradientUnits="userSpaceOnUse">
<stop stop-color="#8A8888"/>
<stop offset="0.270601" stop-color="#666565"/>
<stop offset="1" stop-color="#424141"/>
</linearGradient>
<radialGradient id="paint10_radial_1_4656" cx="0" cy="0" r="1" gradientUnits="userSpaceOnUse" gradientTransform="translate(18.9208 9.01239) rotate(95.3041) scale(10.3634 7.73251)">
<stop stop-color="#898887"/>
<stop offset="1" stop-color="#646060" stop-opacity="0"/>
</radialGradient>
<linearGradient id="paint11_linear_1_4656" x1="10.6787" y1="15.0765" x2="15.5624" y2="8.27785" gradientUnits="userSpaceOnUse">
<stop stop-color="#3B3B3B"/>
<stop offset="1" stop-color="#484848" stop-opacity="0"/>
</linearGradient>
<linearGradient id="paint12_linear_1_4656" x1="10.7449" y1="14.6706" x2="15.4931" y2="8.27631" gradientUnits="userSpaceOnUse">
<stop stop-color="#DEDEDE"/>
<stop offset="1" stop-color="#999999"/>
</linearGradient>
</defs>
</svg>
