<svg width="0" height="0" class="hidden">
  <symbol fill="none" xmlns="http://www.w3.org/2000/svg" viewBox="0 0 21 22" id="m-icon">
    <g filter="url(#filter0_n_1_4656)">
      <g filter="url(#filter1_n_1_4656)">
        <path d="M3.76892 15.1604C-1.38706 10.9207 0.562865 6.81989 0.110403 1.1743C0.0895794 0.914476 0.311883 0.698302 0.56765 0.748551C3.6413 1.35242 8.83086 3.77579 9.94433 9.71256C10.4472 12.3937 10.1918 16.0689 10.187 20.6243C10.1869 20.755 10.019 20.8093 9.94106 20.7043C9.00394 19.442 8.67614 19.1955 3.76892 15.1604Z" fill="url(#paint0_linear_1_4656)"></path>
        <path d="M3.45544 14.7139C-0.964697 11.0603 0.511898 5.93865 0.333183 1.3678C0.323238 1.11343 0.543087 0.908146 0.79242 0.959484C3.67373 1.55274 8.74306 4.05779 9.77333 9.55093C10.2372 12.0243 10.2039 16.2955 10.2108 20.5501C10.211 20.6839 10.0348 20.7385 9.95618 20.6302C8.95041 19.2453 7.6722 18.1994 3.45544 14.7139Z" fill="url(#paint1_linear_1_4656)"></path>
        <g opacity="0.6">
          <path d="M10.2128 20.6378L10.2005 15.7588C10.1989 15.1173 10.0614 14.4758 9.75016 13.9148C6.06394 7.27134 0.334983 8.70365 0.334983 8.70365C0.334983 8.70365 0.417658 12.3493 3.39035 14.7005C5.09009 16.0449 5.59453 16.615 7.29389 17.9599C8.64777 19.0313 9.52751 20.141 9.94012 20.7215C10.0198 20.8336 10.2132 20.7753 10.2128 20.6378Z" fill="url(#paint2_linear_1_4656)"></path>
          <path d="M10.2128 20.6378L10.2005 15.7588C10.1989 15.1173 10.0614 14.4758 9.75016 13.9148C6.06394 7.27134 0.334983 8.70365 0.334983 8.70365C0.334983 8.70365 0.417658 12.3493 3.39035 14.7005C5.09009 16.0449 5.59453 16.615 7.29389 17.9599C8.64777 19.0313 9.52751 20.141 9.94012 20.7215C10.0198 20.8336 10.2132 20.7753 10.2128 20.6378Z" fill="url(#paint3_radial_1_4656)"></path>
        </g>
        <path d="M10.0366 14.5917C8.43198 11.1025 4.93369 8.07745 0.944118 8.63721C0.877364 8.64569 0.806954 8.62761 0.741589 8.63784C0.806971 8.62769 0.8775 8.64609 0.94427 8.63773C4.8618 8.18497 8.38028 11.1974 9.81636 14.6963C9.90272 14.8883 10.1288 15.3704 10.1288 15.3704L10.0663 14.9646C10.0663 14.9646 10.132 14.7828 10.0366 14.5917Z" fill="url(#paint4_linear_1_4656)"></path>
        <path d="M10.1013 14.5431C8.4966 11.0539 4.99915 8.0748 1.00958 8.63456C0.942824 8.64305 0.872414 8.62496 0.807049 8.6352C0.872432 8.62505 0.94296 8.64344 1.00973 8.63509C5.01211 8.08455 8.4449 11.1488 9.88098 14.6477C9.96735 14.8397 10.1935 15.3218 10.1935 15.3218L10.131 14.916C10.131 14.916 10.1967 14.7342 10.1013 14.5431Z" fill="#3F3F3F"></path>
      </g>
      <path d="M0.597656 0.750381C3.67134 1.35435 8.8602 3.77768 9.97363 9.71425C10.4755 12.3902 10.2961 16.2093 10.2949 20.7621C10.2949 20.8952 10.1221 20.948 10.0469 20.8383C9.99973 20.7693 9.95197 20.7042 9.90723 20.64C9.69263 20.3442 9.3738 19.9375 8.95117 19.4779C8.18848 18.7096 6.88858 17.647 3.82422 15.1869C-1.40838 10.9858 0.589214 6.8251 0.139648 1.17616C0.118967 0.916328 0.34189 0.700132 0.597656 0.750381Z" fill="url(#paint5_radial_1_4656)"></path>
      <g filter="url(#filter2_n_1_4656)">
        <path d="M16.9607 15.0746C21.9989 11.1638 20.469 7.076 20.6647 1.05249C20.6711 0.853148 20.5335 0.675797 20.334 0.678305C18.0931 0.706479 11.6625 3.75205 10.9489 9.75692C10.6115 12.5959 10.4925 16.1117 10.6014 20.6725C10.6044 20.7957 10.7567 20.8502 10.8357 20.7556C11.9638 19.4062 12.1295 18.8247 16.9607 15.0746Z" fill="url(#paint6_radial_1_4656)"></path>
        <path d="M16.9607 15.0746C21.9989 11.1638 20.469 7.076 20.6647 1.05249C20.6711 0.853148 20.5335 0.675797 20.334 0.678305C18.0931 0.706479 11.6625 3.75205 10.9489 9.75692C10.6115 12.5959 10.4925 16.1117 10.6014 20.6725C10.6044 20.7957 10.7567 20.8502 10.8357 20.7556C11.9638 19.4062 12.1295 18.8247 16.9607 15.0746Z" fill="url(#paint7_radial_1_4656)"></path>
        <path d="M17.3981 14.56C21.8182 10.9064 20.3416 5.78479 20.5203 1.21394C20.5303 0.959567 20.3104 0.754284 20.0611 0.805622C17.1798 1.39888 12.1105 3.90393 11.0802 9.39706C10.6163 11.8704 10.6496 16.1417 10.6427 20.3963C10.6425 20.5301 10.8187 20.5846 10.8973 20.4764C11.9031 19.0914 13.1813 18.0455 17.3981 14.56Z" fill="url(#paint8_linear_1_4656)"></path>
        <path d="M10.6406 20.5303L10.653 15.605C10.6547 14.9634 10.7921 14.322 11.1034 13.761C14.7896 7.11747 20.5185 8.54979 20.5185 8.54979C20.5185 8.54979 20.4058 12.2789 17.4331 14.63C15.7334 15.9744 15.3612 16.2636 13.6497 17.7104C12.2879 18.8616 11.3335 20.0387 10.9009 20.6151C10.8205 20.7221 10.6402 20.6641 10.6406 20.5303Z" fill="url(#paint9_linear_1_4656)"></path>
        <path d="M10.6406 20.5303L10.653 15.605C10.6547 14.9634 10.7921 14.322 11.1034 13.761C14.7896 7.11747 20.5185 8.54979 20.5185 8.54979C20.5185 8.54979 20.4058 12.2789 17.4331 14.63C15.7334 15.9744 15.3612 16.2636 13.6497 17.7104C12.2879 18.8616 11.3335 20.0387 10.9009 20.6151C10.8205 20.7221 10.6402 20.6641 10.6406 20.5303Z" fill="url(#paint10_radial_1_4656)"></path>
        <path d="M10.8208 14.4379C12.4254 10.9486 15.9237 7.92358 19.9133 8.48335C19.9801 8.49183 20.0505 8.47375 20.1158 8.48398C20.0505 8.47383 19.9799 8.49222 19.9132 8.48387C15.9956 8.03111 12.4771 11.0436 11.0411 14.5424C10.9547 14.7344 10.7286 15.2165 10.7286 15.2165L10.7911 14.8107C10.7911 14.8107 10.7254 14.6289 10.8208 14.4379Z" fill="url(#paint11_linear_1_4656)"></path>
        <path d="M10.8138 14.3497C12.4184 10.8604 15.855 7.92194 19.8446 8.4817C19.9113 8.49018 19.9817 8.4721 20.0471 8.48234C19.9817 8.47218 19.9112 8.49058 19.8444 8.48222C15.8421 7.93169 12.4093 10.996 10.9732 14.4948C10.8868 14.6868 10.6607 15.1689 10.6607 15.1689L10.6606 14.8051C10.6606 14.8051 10.7184 14.5408 10.8138 14.3497Z" fill="url(#paint12_linear_1_4656)"></path>
      </g>
    </g>
    <defs>
      <filter id="filter0_n_1_4656" x="0.107422" y="0.678276" width="20.6309" height="20.2192" filterUnits="userSpaceOnUse" color-interpolation-filters="sRGB">
        <feFlood flood-opacity="0" result="BackgroundImageFix"></feFlood>
        <feBlend mode="normal" in="SourceGraphic" in2="BackgroundImageFix" result="shape"></feBlend>
        <feTurbulence type="fractalNoise" baseFrequency="37.003162384033203 37.003162384033203" stitchTiles="stitch" numOctaves="3" result="noise" seed="6270"></feTurbulence>
        <feColorMatrix in="noise" type="luminanceToAlpha" result="alphaNoise"></feColorMatrix>
        <feComponentTransfer in="alphaNoise" result="coloredNoise1">
          <feFuncA type="discrete" tableValues="0 0 0 0 1 1 1 1 1 1 1 1 1 1 1 1 1 1 1 1 1 1 1 1 1 1 1 1 1 1 1 1 1 1 1 1 1 1 1 1 1 1 1 1 1 1 1 0 0 0 0 0 0 0 0 0 0 0 0 0 0 0 0 0 0 0 0 0 0 0 0 0 0 0 0 0 0 0 0 0 0 0 0 0 0 0 0 0 0 0 0 0 0 0 0 0 0 0 0 0 "></feFuncA>
        </feComponentTransfer>
        <feComposite operator="in" in2="shape" in="coloredNoise1" result="noise1Clipped"></feComposite>
        <feFlood flood-color="rgba(0, 0, 0, 0.25)" result="color1Flood"></feFlood>
        <feComposite operator="in" in2="noise1Clipped" in="color1Flood" result="color1"></feComposite>
        <feMerge result="effect1_noise_1_4656">
          <feMergeNode in="shape"></feMergeNode>
          <feMergeNode in="color1"></feMergeNode>
        </feMerge>
      </filter>
      <filter id="filter1_n_1_4656" x="0.107422" y="0.741241" width="10.1484" height="20.0394" filterUnits="userSpaceOnUse" color-interpolation-filters="sRGB">
        <feFlood flood-opacity="0" result="BackgroundImageFix"></feFlood>
        <feBlend mode="normal" in="SourceGraphic" in2="BackgroundImageFix" result="shape"></feBlend>
        <feTurbulence type="fractalNoise" baseFrequency="24.668773651123047 24.668773651123047" stitchTiles="stitch" numOctaves="3" result="noise" seed="5092"></feTurbulence>
        <feColorMatrix in="noise" type="luminanceToAlpha" result="alphaNoise"></feColorMatrix>
        <feComponentTransfer in="alphaNoise" result="coloredNoise1">
          <feFuncA type="discrete" tableValues="1 1 1 1 1 1 1 1 1 1 1 1 1 1 1 1 1 1 1 1 1 1 1 1 1 1 1 1 1 1 1 1 1 1 1 1 1 1 1 1 1 1 1 1 1 1 1 1 1 1 1 0 0 0 0 0 0 0 0 0 0 0 0 0 0 0 0 0 0 0 0 0 0 0 0 0 0 0 0 0 0 0 0 0 0 0 0 0 0 0 0 0 0 0 0 0 0 0 0 0 "></feFuncA>
        </feComponentTransfer>
        <feComposite operator="in" in2="shape" in="coloredNoise1" result="noise1Clipped"></feComposite>
        <feFlood flood-color="rgba(131, 123, 123, 0.25)" result="color1Flood"></feFlood>
        <feComposite operator="in" in2="noise1Clipped" in="color1Flood" result="color1"></feComposite>
        <feMerge result="effect1_noise_1_4656">
          <feMergeNode in="shape"></feMergeNode>
          <feMergeNode in="color1"></feMergeNode>
        </feMerge>
      </filter>
      <filter id="filter2_n_1_4656" x="10.5625" y="0.678276" width="10.1758" height="20.1253" filterUnits="userSpaceOnUse" color-interpolation-filters="sRGB">
        <feFlood flood-opacity="0" result="BackgroundImageFix"></feFlood>
        <feBlend mode="normal" in="SourceGraphic" in2="BackgroundImageFix" result="shape"></feBlend>
        <feTurbulence type="fractalNoise" baseFrequency="24.668773651123047 24.668773651123047" stitchTiles="stitch" numOctaves="3" result="noise" seed="5092"></feTurbulence>
        <feColorMatrix in="noise" type="luminanceToAlpha" result="alphaNoise"></feColorMatrix>
        <feComponentTransfer in="alphaNoise" result="coloredNoise1">
          <feFuncA type="discrete" tableValues="1 1 1 1 1 1 1 1 1 1 1 1 1 1 1 1 1 1 1 1 1 1 1 1 1 1 1 1 1 1 1 1 1 1 1 1 1 1 1 1 1 1 1 1 1 1 1 1 1 1 1 0 0 0 0 0 0 0 0 0 0 0 0 0 0 0 0 0 0 0 0 0 0 0 0 0 0 0 0 0 0 0 0 0 0 0 0 0 0 0 0 0 0 0 0 0 0 0 0 0 "></feFuncA>
        </feComponentTransfer>
        <feComposite operator="in" in2="shape" in="coloredNoise1" result="noise1Clipped"></feComposite>
        <feFlood flood-color="rgba(131, 123, 123, 0.25)" result="color1Flood"></feFlood>
        <feComposite operator="in" in2="noise1Clipped" in="color1Flood" result="color1"></feComposite>
        <feMerge result="effect1_noise_1_4656">
          <feMergeNode in="shape"></feMergeNode>
          <feMergeNode in="color1"></feMergeNode>
        </feMerge>
      </filter>
      <linearGradient id="paint0_linear_1_4656" x1="0.481637" y1="0.187523" x2="10.6835" y2="21.6046" gradientUnits="userSpaceOnUse">
        <stop stop-color="#F0F0F0"></stop>
        <stop offset="1" stop-color="#686868"></stop>
      </linearGradient>
      <linearGradient id="paint1_linear_1_4656" x1="-1.23114" y1="2.05358" x2="10.0622" y2="18.905" gradientUnits="userSpaceOnUse">
        <stop stop-color="#F2F2F2"></stop>
        <stop offset="0.226398" stop-color="#D4D4D4"></stop>
        <stop offset="0.730106" stop-color="#404040"></stop>
        <stop offset="1" stop-color="#343434"></stop>
      </linearGradient>
      <linearGradient id="paint2_linear_1_4656" x1="2.24068" y1="8.36289" x2="10.9306" y2="19.4853" gradientUnits="userSpaceOnUse">
        <stop stop-color="#D0CFCF"></stop>
        <stop offset="0.270601" stop-color="#D6D6D6"></stop>
        <stop offset="1" stop-color="#888888"></stop>
      </linearGradient>
      <radialGradient id="paint3_radial_1_4656" cx="0" cy="0" r="1" gradientUnits="userSpaceOnUse" gradientTransform="translate(1.94483 9.08074) rotate(84.8056) scale(10.4474 7.79521)">
        <stop stop-color="#DBDBDB"></stop>
        <stop offset="1" stop-color="#CBCBCA" stop-opacity="0"></stop>
      </radialGradient>
      <linearGradient id="paint4_linear_1_4656" x1="4.99783" y1="9.11021" x2="5.5743" y2="15.5491" gradientUnits="userSpaceOnUse">
        <stop stop-color="#C8C8C8"></stop>
        <stop offset="1" stop-color="#828282"></stop>
      </linearGradient>
      <radialGradient id="paint5_radial_1_4656" cx="0" cy="0" r="1" gradientTransform="matrix(4.39158 10.2018 -8.64808 3.72262 0.866238 7.39212)" gradientUnits="userSpaceOnUse">
        <stop stop-color="white"></stop>
        <stop offset="1" stop-color="#A5A5A5" stop-opacity="0"></stop>
      </radialGradient>
      <radialGradient id="paint6_radial_1_4656" cx="0" cy="0" r="1" gradientUnits="userSpaceOnUse" gradientTransform="translate(20.6775 5.77061) rotate(-152.21) scale(5.65141 25.1634)">
        <stop stop-color="#3A3A3A"></stop>
        <stop offset="1" stop-color="white"></stop>
      </radialGradient>
      <radialGradient id="paint7_radial_1_4656" cx="0" cy="0" r="1" gradientUnits="userSpaceOnUse" gradientTransform="translate(13.6511 4.01401) rotate(101.541) scale(13.1706 14.9088)">
        <stop stop-color="white"></stop>
        <stop offset="1" stop-color="#292929" stop-opacity="0.75"></stop>
      </radialGradient>
      <linearGradient id="paint8_linear_1_4656" x1="22.0847" y1="1.89972" x2="8.31287" y2="17.3043" gradientUnits="userSpaceOnUse">
        <stop stop-color="#696969"></stop>
        <stop offset="0.269894" stop-color="#868685"></stop>
        <stop offset="0.773602" stop-color="#BBB9B9"></stop>
      </linearGradient>
      <linearGradient id="paint9_linear_1_4656" x1="18.6128" y1="8.20903" x2="10.6772" y2="19.3995" gradientUnits="userSpaceOnUse">
        <stop stop-color="#8A8888"></stop>
        <stop offset="0.270601" stop-color="#666565"></stop>
        <stop offset="1" stop-color="#424141"></stop>
      </linearGradient>
      <radialGradient id="paint10_radial_1_4656" cx="0" cy="0" r="1" gradientUnits="userSpaceOnUse" gradientTransform="translate(18.9208 9.01239) rotate(95.3041) scale(10.3634 7.73251)">
        <stop stop-color="#898887"></stop>
        <stop offset="1" stop-color="#646060" stop-opacity="0"></stop>
      </radialGradient>
      <linearGradient id="paint11_linear_1_4656" x1="10.6787" y1="15.0765" x2="15.5624" y2="8.27785" gradientUnits="userSpaceOnUse">
        <stop stop-color="#3B3B3B"></stop>
        <stop offset="1" stop-color="#484848" stop-opacity="0"></stop>
      </linearGradient>
      <linearGradient id="paint12_linear_1_4656" x1="10.7449" y1="14.6706" x2="15.4931" y2="8.27631" gradientUnits="userSpaceOnUse">
        <stop stop-color="#DEDEDE"></stop>
        <stop offset="1" stop-color="#999999"></stop>
      </linearGradient>
    </defs>
  </symbol>
  <symbol fill="none" xmlns="http://www.w3.org/2000/svg" viewBox="0 0 17 14" id="m-menu">
    <path d="M1 1H16" stroke="#525352" stroke-width="2" stroke-linecap="round"></path>
    <path d="M4 7H13" stroke="#525352" stroke-width="2" stroke-linecap="round"></path>
    <path d="M1 13H16" stroke="#525352" stroke-width="2" stroke-linecap="round"></path>
  </symbol>
  <symbol id="arrow-right" viewBox="0 0 12 11" fill="none">
    <path d="M0 5.5H11M11 5.5L7 0.5M11 5.5L7 10.5" stroke="black"/>
  </symbol>
  <symbol id="icon-close" viewBox="0 0 13 13" fill="none">
    <path d="M1 11.7316L11.6066 1.125" stroke="#525352" stroke-width="2" stroke-linecap="round"/>
    <path d="M11.9629 11.2684L1.02965 0.998857" stroke="#525352" stroke-width="2" stroke-linecap="round"/>
  </symbol>
    <symbol id="icon-star" viewBox="0 0 18 18">
    <path
      d="M17.1255 1.75327C17.2353 1.63537 17.2951 1.47943 17.2923 1.3183C17.2895 1.15717 17.2242 1.00344 17.1102 0.889487C16.9963 0.775534 16.8425 0.710261 16.6814 0.707418C16.5203 0.704575 16.3643 0.764385 16.2464 0.874246L14.578 2.54273C13.8991 2.06152 13.0719 1.83602 12.2428 1.90614C11.4136 1.97626 10.6361 2.33748 10.0477 2.92586L9.16201 3.81234C8.89007 4.08447 8.73732 4.45344 8.73732 4.83815C8.73732 5.22286 8.89007 5.59183 9.16201 5.86395L12.1349 8.83771C12.2697 8.97248 12.4297 9.07939 12.6058 9.15233C12.7818 9.22527 12.9706 9.26281 13.1612 9.26281C13.3517 9.26281 13.5405 9.22527 13.7165 9.15233C13.8926 9.07939 14.0526 8.97248 14.1874 8.83771L15.073 7.95205C15.6615 7.36377 16.0229 6.58623 16.0932 5.75709C16.1635 4.92795 15.9381 4.10069 15.457 3.42176L17.1255 1.75327ZM14.1525 3.80571L14.1708 3.82478L14.1733 3.82644L14.1749 3.82893L14.194 3.84717C14.4059 4.05895 14.574 4.3104 14.6886 4.58715C14.8033 4.8639 14.8623 5.16053 14.8623 5.4601C14.8623 5.75967 14.8033 6.0563 14.6886 6.33305C14.574 6.6098 14.4059 6.86125 14.194 7.07303L13.3083 7.95786C13.2891 7.97716 13.2662 7.99248 13.241 8.00293C13.2158 8.01338 13.1888 8.01876 13.1616 8.01876C13.1343 8.01876 13.1073 8.01338 13.0821 8.00293C13.0569 7.99248 13.034 7.97716 13.0148 7.95786L10.041 4.98493C10.0217 4.96567 10.0064 4.94279 9.99596 4.91761C9.98551 4.89242 9.98013 4.86542 9.98013 4.83815C9.98013 4.81088 9.98551 4.78388 9.99596 4.75869C10.0064 4.7335 10.0217 4.71063 10.041 4.69137L10.9267 3.80571C11.1385 3.59383 11.3899 3.42576 11.6667 3.31109C11.9434 3.19641 12.2401 3.13739 12.5396 3.13739C12.8392 3.13739 13.1358 3.19641 13.4126 3.31109C13.6893 3.42576 13.9408 3.59383 14.1525 3.80571ZM8.00352 8.38742C8.06463 8.33048 8.11364 8.26181 8.14763 8.18552C8.18163 8.10923 8.1999 8.02687 8.20138 7.94336C8.20285 7.85985 8.18749 7.7769 8.15621 7.69946C8.12493 7.62201 8.07837 7.55166 8.01931 7.4926C7.96025 7.43355 7.8899 7.38699 7.81246 7.35571C7.73501 7.32442 7.65206 7.30906 7.56855 7.31054C7.48504 7.31201 7.40268 7.33029 7.32639 7.36428C7.2501 7.39827 7.18144 7.44729 7.1245 7.50839L5.69815 8.93473L5.3084 8.54498C5.19178 8.42851 5.0337 8.36309 4.86889 8.36309C4.70407 8.36309 4.54599 8.42851 4.42937 8.54498L2.95742 10.0169C2.36892 10.6052 2.00755 11.3827 1.93727 12.2119C1.867 13.041 2.09237 13.8683 2.57347 14.5472L0.904984 16.2157C0.843878 16.2726 0.794867 16.3413 0.760873 16.4176C0.72688 16.4939 0.708601 16.5763 0.707128 16.6598C0.705655 16.7433 0.721016 16.8262 0.752297 16.9037C0.783578 16.9811 0.830137 17.0515 0.889196 17.1105C0.948256 17.1696 1.01861 17.2161 1.09605 17.2474C1.17349 17.2787 1.25644 17.2941 1.33995 17.2926C1.42346 17.2911 1.50582 17.2728 1.58211 17.2388C1.65841 17.2049 1.72707 17.1558 1.78401 17.0947L3.4525 15.4262C4.13143 15.9074 4.95869 16.1327 5.78783 16.0624C6.61697 15.9922 7.39451 15.6308 7.98279 15.0423L9.45474 13.5703C9.57121 13.4537 9.63663 13.2956 9.63663 13.1308C9.63663 12.966 9.57121 12.8079 9.45474 12.6913L9.06498 12.3016L10.4913 10.8752C10.5524 10.8183 10.6014 10.7496 10.6354 10.6733C10.6694 10.597 10.6877 10.5147 10.6892 10.4312C10.6907 10.3477 10.6753 10.2647 10.644 10.1873C10.6127 10.1098 10.5662 10.0395 10.5071 9.98041C10.4481 9.92135 10.3777 9.87479 10.3003 9.84351C10.2228 9.81223 10.1399 9.79687 10.0564 9.79834C9.97285 9.79981 9.89049 9.81809 9.8142 9.85209C9.7379 9.88608 9.66924 9.93509 9.6123 9.9962L8.18596 11.4225L6.57718 9.81376L8.00352 8.38742ZM5.25533 10.2508L5.25864 10.2533L5.26113 10.2566L7.74313 12.7386L7.74645 12.7411L7.74894 12.7444L8.13537 13.1308L7.10376 14.1633C6.89199 14.3751 6.64054 14.5432 6.36379 14.6579C6.08704 14.7726 5.79041 14.8316 5.49084 14.8316C5.19127 14.8316 4.89464 14.7726 4.61789 14.6579C4.34113 14.5432 4.08969 14.3751 3.87791 14.1633L3.83645 14.1218C3.62457 13.91 3.4565 13.6586 3.34182 13.3818C3.22715 13.1051 3.16813 12.8084 3.16813 12.5089C3.16813 12.2093 3.22715 11.9127 3.34182 11.6359C3.4565 11.3592 3.62457 11.1077 3.83645 10.896L4.86889 9.86517L5.25533 10.2508Z"
      fill="#838383"
      fillOpacity="0.58"
    />
  </symbol>
  <symbol id="complex-icon" viewBox="0 0 153 153" fill="none">
    <path fill="url(#a)" d="M27.996 106.259C-9.608 75.577 4.602 45.899 1.309 5.046c-.152-1.894 1.467-3.472 3.333-3.108 22.422 4.37 60.28 21.912 68.402 64.887 3.668 19.406 1.806 46.008 1.77 78.981 0 .952-1.221 1.349-1.791.586-6.838-9.14-9.226-10.921-45.027-40.133Z"/>
    <path fill="url(#b)" d="M25.706 103.026C-6.531 76.586 4.228 39.525 2.93 6.444 2.858 4.59 4.46 3.092 6.277 3.464c21.019 4.293 58 22.426 65.517 62.19 3.383 17.903 3.14 48.818 3.19 79.615.003.974-1.279 1.372-1.854.586-7.337-10.026-16.66-17.596-47.424-42.829Z"/>
    <g opacity=".6">
      <path fill="url(#c)" d="m75 145.898-.09-35.208c-.012-4.713-1.029-9.426-3.333-13.539C44.685 49.16 2.942 59.514 2.942 59.514s.603 26.39 22.289 43.409c12.399 9.731 16.079 13.859 28.475 23.593 9.88 7.758 16.298 15.794 19.307 19.995.583.814 1.99.388 1.987-.613Z"/>
      <path fill="url(#d)" d="m75 145.898-.09-35.208c-.012-4.713-1.029-9.426-3.333-13.539C44.685 49.16 2.942 59.514 2.942 59.514s.603 26.39 22.289 43.409c12.399 9.731 16.079 13.859 28.475 23.593 9.88 7.758 16.298 15.794 19.307 19.995.583.814 1.99.388 1.987-.613Z"/>
    </g>
    <path fill="url(#e)" d="M73.698 102.128C61.993 76.871 36.473 54.974 7.37 59.026c-.487.061-1-.07-1.478.005.477-.074.992.06 1.479-.001 28.578-3.278 54.244 18.528 64.72 43.855.63 1.39 2.28 4.88 2.28 4.88l-.456-2.938s.48-1.316-.217-2.699Z"/>
    <path fill="#3F3F3F" d="M74.183 101.793C62.478 76.536 36.964 54.971 7.861 59.023c-.487.062-1-.07-1.478.005.477-.073.992.06 1.479 0 29.197-3.986 54.239 18.195 64.714 43.522.63 1.39 2.28 4.879 2.28 4.879l-.456-2.937s.48-1.316-.217-2.699Z"/>
    <path fill="url(#f)" d="M1.5 5.048C1.348 3.153 2.967 1.576 4.833 1.94c22.422 4.37 60.28 21.912 68.402 64.886 3.661 19.37 2.35 47.015 2.342 79.969 0 .97-1.257 1.353-1.808.554-.359-.522-.707-1.022-1.047-1.506a94.614 94.614 0 0 0-6.555-7.956c-5.51-5.595-14.91-13.216-37.791-31.444C-9.79 76.039 4.772 45.926 1.5 5.048Z"/>
    <path fill="url(#g)" d="M124.2 105.638c36.747-28.303 25.597-57.888 27.019-101.476.048-1.456-.958-2.75-2.415-2.732-16.351.207-63.254 22.253-68.46 65.716-2.46 20.549-3.328 45.998-2.534 79.009.022.897 1.13 1.295 1.707.609 8.231-9.77 9.437-13.978 44.683-41.126Z"/>
    <path fill="url(#h)" d="M124.2 105.638c36.747-28.303 25.597-57.888 27.019-101.476.048-1.456-.958-2.75-2.415-2.732-16.351.207-63.254 22.253-68.46 65.716-2.46 20.549-3.328 45.998-2.534 79.009.022.897 1.13 1.295 1.707.609 8.231-9.77 9.437-13.978 44.683-41.126Z"/>
    <path fill="url(#i)" d="M127.386 101.919c32.236-26.44 21.478-63.501 22.776-96.581.072-1.855-1.529-3.353-3.348-2.981-21.018 4.293-58 22.426-65.516 62.19-3.384 17.903-3.14 48.819-3.191 79.615-.002.974 1.28 1.373 1.855.586 7.337-10.026 16.66-17.596 47.424-42.829Z"/>
    <path fill="url(#j)" d="m78.097 145.127.09-35.544c.013-4.713 1.03-9.426 3.334-13.538 26.892-47.993 68.635-37.637 68.635-37.637s-.823 26.993-22.508 44.012c-12.399 9.731-15.114 11.825-27.6 22.298-9.936 8.335-16.9 16.858-20.055 21.029-.587.777-1.898.354-1.896-.62Z"/>
    <path fill="url(#k)" d="m78.097 145.127.09-35.544c.013-4.713 1.03-9.426 3.334-13.538 26.892-47.993 68.635-37.637 68.635-37.637s-.823 26.993-22.508 44.012c-12.399 9.731-15.114 11.825-27.6 22.298-9.936 8.335-16.9 16.858-20.055 21.029-.587.777-1.898.354-1.896-.62Z"/>
    <path fill="url(#l)" d="M79.401 101.022c11.706-25.258 37.226-47.155 66.329-43.103.487.062 1-.07 1.477.005-.477-.074-.991.06-1.478-.001-28.578-3.277-54.245 18.528-64.72 43.855-.63 1.39-2.28 4.88-2.28 4.88l.456-2.938s-.48-1.315.216-2.698Z"/>
    <path fill="url(#m)" d="M79.355 100.391c11.706-25.257 36.775-46.528 65.879-42.476.487.061 1-.07 1.477.005-.477-.074-.991.06-1.478-.001-29.197-3.985-54.239 18.196-64.715 43.522-.63 1.39-2.28 4.88-2.28 4.88v-2.634s.421-1.913 1.117-3.296Z"/>
    
    <defs>
      <linearGradient id="a" x1="4.015" x2="77.501" y1="-2.123" y2="153.348"><stop stop-color="#F0F0F0"/><stop offset="1" stop-color="#686868"/></linearGradient>
      <linearGradient id="b" x1="-8.482" x2="73.023" y1="11.384" y2="133.948"><stop stop-color="#F2F2F2"/><stop offset=".226" stop-color="#D4D4D4"/><stop offset=".73" stop-color="#404040"/><stop offset="1" stop-color="#343434"/></linearGradient>
      <linearGradient id="c" x1="16.844" x2="79.627" y1="57.048" y2="138.03"><stop stop-color="#D0CFCF"/><stop offset=".271" stop-color="#D6D6D6"/><stop offset="1" stop-color="#888"/></linearGradient>
      <linearGradient id="d" x1="36.941" x2="41.082" y1="62.45" y2="109.064"><stop stop-color="#C8C8C8"/><stop offset="1" stop-color="#828282"/></linearGradient>
      <linearGradient id="e" x1="36.941" x2="41.082" y1="62.45" y2="109.064"><stop stop-color="#C8C8C8"/><stop offset="1" stop-color="#828282"/></linearGradient>
      <radialGradient id="f" cx="0" cy="0" r="1" gradientTransform="matrix(32.0355 73.8481 -63.0856 26.947 6.796 50.021)"><stop stop-color="#fff"/><stop offset="1" stop-color="#A5A5A5" stop-opacity="0"/></radialGradient>
      <radialGradient id="g" cx="0" cy="0" r="1" gradientTransform="matrix(-36.4711 -19.073 -85.5842 161.138 151.314 38.29)"><stop stop-color="#3A3A3A"/><stop offset="1" stop-color="#fff"/></radialGradient>
      <radialGradient id="h" cx="0" cy="0" r="1" gradientTransform="matrix(-19.2213 93.4087 106.558 21.5902 100.057 25.575)"><stop stop-color="#fff"/><stop offset="1" stop-color="#292929" stop-opacity=".75"/></radialGradient>
      <radialGradient id="i" cx="0" cy="0" r="1" gradientTransform="matrix(161.574 10.277 61.975 122.551)"><stop stop-color="#696969"/><stop offset=".27" stop-color="#868685"/><stop offset=".774" stop-color="#BBB9B9"/></radialGradient>
      <linearGradient id="j" x1="136.254" x2="78.96" y1="55.941" y2="137.363"><stop stop-color="#8A8888"/><stop offset=".271" stop-color="#666565"/><stop offset="1" stop-color="#424141"/></linearGradient>
      <linearGradient id="k" x1="136.254" x2="78.96" y1="55.941" y2="137.363"><stop stop-color="#8A8888"/><stop offset=".271" stop-color="#666565"/><stop offset="1" stop-color="#424141"/></linearGradient>
      <linearGradient id="l" x1="78.365" x2="113.627" y1="105.644" y2="56.173"><stop stop-color="#3B3B3B"/><stop offset="1" stop-color="#484848" stop-opacity="0"/></linearGradient>
      <linearGradient id="m" x1="78.853" x2="113.145" y1="102.714" y2="56.174"><stop stop-color="#DEDEDE"/><stop offset="1" stop-color="#999"/></linearGradient>
    </defs>
  </symbol>
  <symbol id="bar-active" viewBox="0 0 28 4" fill="none">
    <path d="M26 0C27.1046 0 28 0.895431 28 2C28 3.10457 27.1046 4 26 4H2C0.895431 4 0 3.10457 0 2C0 0.895431 0.895431 0 2 0H26Z" fill="#5D625F"/>
  </symbol>

  <symbol id="bar-inactive" viewBox="0 0 29 4" fill="none">
    <path opacity="0.19" d="M26.5996 0C27.7042 0 28.5996 0.895431 28.5996 2C28.5996 3.10457 27.7042 4 26.5996 4H2.59961C1.49504 4 0.599609 3.10457 0.599609 2C0.599609 0.895431 1.49504 0 2.59961 0H26.5996Z" fill="#979797"/>
  </symbol>
</svg>
